<svg width="265" height="114" viewBox="0 0 265 114" fill="none" xmlns="http://www.w3.org/2000/svg">
<path d="M80.6334 74.5958C82.8522 71.3684 84.6171 68.1411 85.9282 64.9137C87.2398 61.5855 88.6007 58.3582 90.0127 55.2317C90.7187 54.1223 90.9708 53.1137 90.7688 52.206C90.6688 51.2983 90.2648 50.3906 89.5588 49.4829C89.0548 48.9787 88.4998 48.3735 87.8948 47.6676C87.2898 46.9616 86.8357 46.2052 86.5333 45.3983C85.9281 43.5829 85.8777 41.818 86.382 40.1035C86.9867 38.2881 87.8948 36.6744 89.1048 35.2624C90.3158 33.7496 91.7278 32.4889 93.3408 31.4804C95.0558 30.371 96.7697 29.6146 98.4847 29.2112C100.905 28.7069 103.578 28.3035 106.503 28.0009C109.528 27.5975 112.403 27.547 115.126 27.8496C117.849 28.0513 120.169 28.7069 122.085 29.8163C124.102 30.9257 125.363 32.7411 125.867 35.2624C126.573 39.9017 124.909 44.1881 120.875 48.1214C120.169 48.8274 119.412 49.4829 118.605 50.0881C117.799 50.6932 116.992 51.3488 116.185 52.0547C112.857 54.5761 110.335 57.8035 108.621 61.7368C105.393 69.6035 101.964 77.218 98.3337 84.5804C94.8037 91.9428 90.5167 98.8012 85.4743 105.155C83.3563 107.777 80.8855 109.643 78.0616 110.752C75.3385 111.962 72.6657 112.517 70.0435 112.416C67.4213 112.416 65.1016 111.71 63.0845 110.298C61.0674 108.987 59.706 107.121 59 104.701C57.7898 100.868 56.7811 97.0362 55.9743 93.2035C55.1674 89.371 54.3606 85.4881 53.5538 81.5547C52.5452 83.5718 51.2342 85.8411 49.6205 88.3624C48.0069 90.8838 46.2419 93.4052 44.3257 95.9265C42.4094 98.3472 40.4932 100.717 38.5769 103.037C36.6607 105.255 34.8957 107.121 33.2821 108.634C31.4667 110.248 29.3486 111.408 26.9281 112.114C24.5076 112.819 22.1375 113.021 19.8179 112.719C17.4982 112.517 15.3804 111.71 13.4641 110.298C11.5479 108.987 10.1863 107.121 9.37945 104.701C8.27005 101.574 7.51365 98.2962 7.11025 94.8676C6.80765 91.4385 6.55555 87.8582 6.35385 84.1265C6.25295 79.2855 6.15215 74.4445 6.05125 69.6035C6.05125 64.7624 5.95035 59.871 5.74865 54.9291C5.74865 53.0129 5.04275 51.5505 3.63075 50.5419C1.91625 49.7351 0.80685 48.5248 0.30255 46.9111C-0.10085 45.1966 -0.10085 43.3308 0.30255 41.3137C0.50425 37.7838 1.91625 35.1112 4.53845 33.2958C7.16065 31.4804 10.2368 30.2701 13.7667 29.665C17.3975 28.959 21.0787 28.7069 24.8103 28.9086C28.6428 29.1103 31.8196 29.3624 34.341 29.665C38.9804 30.2701 41.3504 33.0941 41.4513 38.1368C41.5522 40.4564 40.947 42.6753 39.6359 44.7932C38.4257 46.8103 36.7111 48.2727 34.4923 49.1804C33.9881 49.4829 33.5342 49.7351 33.1308 49.9368C32.7274 50.1385 32.2735 50.3402 31.7693 50.5419C31.5675 51.4496 31.4667 53.0129 31.4667 55.2317C31.4667 57.3496 31.517 59.6188 31.6179 62.0394C31.8196 64.4599 32.0718 66.83 32.3744 69.1496C32.6769 71.3684 33.0298 73.0325 33.4333 74.1419C35.3495 71.1163 37.1145 68.2419 38.7282 65.5188C40.3419 62.7958 41.9556 60.1231 43.5693 57.5009C45.1829 54.7778 46.7966 52.0547 48.4103 49.3317C50.1248 46.5077 51.9906 43.4821 54.0077 40.2547C55.1171 38.4394 56.5795 37.0778 58.3949 36.1701C60.3111 35.1616 62.1768 34.7077 63.9922 34.8086C65.9085 34.8086 67.623 35.4137 69.1358 36.624C70.6486 37.8342 71.6069 39.6496 72.0103 42.0701C72.6154 45.1966 73.271 48.1214 73.9769 50.8445C74.7838 53.4667 75.5906 56.0385 76.3975 58.5599C77.2043 61.0812 77.9606 63.653 78.6666 66.2753C79.4734 68.8975 80.1291 71.671 80.6334 74.5958ZM132.738 49.9368C130.419 49.2308 128.704 48.5753 127.595 47.9701C126.485 47.365 126.032 45.953 126.233 43.7342C126.435 42.4231 126.637 41.1624 126.838 39.9522C127.141 38.6411 127.393 37.3804 127.595 36.1701C127.897 35.2624 128.402 34.5564 129.108 34.0522C129.914 33.5479 130.772 33.1445 131.679 32.8419C132.688 32.5394 133.697 32.3376 134.705 32.2368C135.714 32.1359 136.571 32.0855 137.277 32.0855C137.983 28.959 138.487 25.8829 138.79 22.8573C139.193 19.8317 139.849 16.8564 140.756 13.9317C140.958 10.8052 142.017 8.23344 143.933 6.21632C145.95 4.09837 148.32 2.53512 151.044 1.52657C153.767 0.518032 156.641 0.0137517 159.667 0.0137517C162.692 -0.0870983 165.314 0.366752 167.533 1.37529C169.752 2.28299 171.315 3.69495 172.223 5.61119C173.131 7.52744 172.929 9.89754 171.618 12.7214C169.601 15.9488 168.189 19.0248 167.382 21.9496C166.676 24.8744 165.97 27.7992 165.264 30.724C165.667 30.724 166.273 30.724 167.079 30.724C167.987 30.724 168.895 30.724 169.803 30.724C170.811 30.724 171.769 30.724 172.677 30.724C173.585 30.724 174.291 30.724 174.795 30.724C176.711 30.5223 177.871 31.0265 178.274 32.2368C178.678 33.447 178.678 35.0607 178.274 37.0778C178.073 38.3889 177.82 39.7 177.518 41.0111C177.215 42.3223 176.761 43.6334 176.156 44.9445C175.047 47.8693 172.828 49.4325 169.5 49.6342C169.097 49.6342 168.491 49.6847 167.685 49.7855C166.979 49.7855 166.222 49.7855 165.415 49.7855C164.608 49.7855 163.802 49.8359 162.995 49.9368C162.188 49.9368 161.583 49.9368 161.179 49.9368C159.364 57.1983 157.851 64.712 156.641 72.4778C155.532 80.1428 154.725 87.5052 154.22 94.565C154.422 95.4727 154.876 96.1282 155.582 96.5317C156.288 96.9352 157.095 97.1372 158.003 97.1372C158.91 97.1372 159.767 96.9352 160.574 96.5317C161.381 96.0274 162.037 95.3718 162.541 94.565C162.944 94.0607 163.297 93.4556 163.6 92.7496C163.903 91.9428 164.255 91.1359 164.659 90.3291C165.062 89.6231 165.466 89.3206 165.869 89.4214C166.373 89.4214 166.777 89.724 167.079 90.3291C167.382 90.9342 167.533 91.7411 167.533 92.7496C167.634 93.7582 167.533 94.8676 167.231 96.0778C166.525 99.9102 165.062 103.087 162.844 105.608C160.625 108.13 158.003 110.046 154.977 111.357C151.951 112.769 148.724 113.576 145.295 113.778C141.967 114.08 138.84 113.828 135.915 113.021C132.991 112.315 130.469 111.105 128.351 109.39C126.334 107.676 125.124 105.508 124.72 102.885C124.014 100.364 123.863 96.9852 124.267 92.7496C124.771 88.4129 125.527 83.824 126.536 78.9829C127.544 74.0411 128.603 69.0488 129.713 64.006C130.923 58.8624 131.932 54.1727 132.738 49.9368ZM218.791 103.49C214.252 106.718 209.512 108.937 204.57 110.147C199.729 111.357 194.989 111.307 190.35 109.996C185.105 108.079 181.273 104.953 178.852 100.616C176.432 96.2795 175.07 91.4385 174.768 86.0932C174.566 80.647 175.221 75.1505 176.734 69.6035C178.348 64.0564 180.466 59.1146 183.088 54.7778C186.416 49.13 190.551 44.7428 195.493 41.6163C200.435 38.4898 206.083 36.4727 212.437 35.565C215.765 35.0607 218.892 35.1616 221.816 35.8676C224.741 36.4727 227.061 37.6325 228.775 39.347C229.28 38.1368 229.683 36.5735 229.986 34.6573C230.389 32.7411 230.692 30.7744 230.893 28.7573C231.095 26.6394 231.196 24.6727 231.196 22.8573C231.196 20.9411 231.145 19.4282 231.045 18.3188C230.036 14.9906 230.036 12.0658 231.045 9.54454C232.053 6.92234 234.474 5.20777 238.306 4.40093C240.827 3.89666 243.651 3.54367 246.778 3.34196C249.904 3.14025 252.779 3.34196 255.401 3.94708C258.124 4.55221 260.343 5.66162 262.057 7.27524C263.772 8.88894 264.528 11.2086 264.327 14.2342C263.52 19.4787 262.562 24.8744 261.452 30.4214C260.343 35.9684 259.183 41.465 257.973 46.9111C256.762 52.3573 255.552 57.7026 254.342 62.947C253.132 68.0906 252.073 72.9821 251.165 77.6214C250.963 78.63 250.762 79.7394 250.56 80.9496C250.358 82.1599 250.207 83.3701 250.106 84.5804C250.106 85.6898 250.257 86.6983 250.56 87.606C250.963 88.5137 251.619 89.1693 252.527 89.5727C253.939 90.1778 255.048 90.9342 255.855 91.8419C256.662 92.6488 257.115 93.8086 257.216 95.3214C257.115 97.3382 256.561 99.1032 255.552 100.616C254.544 102.028 253.333 103.39 251.921 104.701C248.896 107.222 245.719 109.037 242.391 110.147C239.063 111.256 235.633 111.861 232.104 111.962C231.095 112.063 230.086 112.063 229.078 111.962C228.17 111.861 227.263 111.71 226.355 111.508C224.237 110.903 222.522 109.996 221.211 108.785C220.001 107.575 219.194 105.81 218.791 103.49ZM226.506 57.8035C226.708 56.5932 226.657 55.7864 226.355 55.3829C226.052 54.8787 225.397 54.4753 224.388 54.1727C221.262 53.265 218.438 53.3154 215.916 54.324C213.496 55.3325 211.378 56.8958 209.563 59.0137C207.848 61.1317 206.486 63.653 205.478 66.5778C204.469 69.5026 203.915 72.377 203.814 75.2009C203.209 78.7308 203.461 81.706 204.57 84.1265C205.78 86.4462 207.344 88.0599 209.26 88.9676C211.176 89.7744 213.244 89.7744 215.463 88.9676C217.782 88.1607 219.85 86.2949 221.665 83.3701C222.774 78.2265 223.682 73.6376 224.388 69.6035C225.094 65.5693 225.8 61.6359 226.506 57.8035Z" fill="current"/>
</svg>
