<svg width="613" height="77" viewBox="0 0 613 77" fill="none" xmlns="http://www.w3.org/2000/svg">
<g clip-path="url(#clip0_54_3)">
<path d="M89.502 13.8184L73.7793 76.6113H64.3066L48.6816 24.6094L33.3984 76.6113H23.7793L7.08008 13.8184L0.976562 12.9883V7.91016H28.2227V12.9883L22.3145 13.623C21.696 13.6882 21.3542 13.9486 21.2891 14.4043C21.2565 14.86 21.2891 15.2995 21.3867 15.7227L31.9824 55.3223L45.9961 7.91016H56.7871L71.2891 56.3965L81.2988 15.7227C81.3965 15.2995 81.3639 14.8763 81.2012 14.4531C81.0384 13.9974 80.599 13.7207 79.8828 13.623L73.4863 12.9883V7.91016H95.6055V12.9883L89.502 13.8184ZM131.592 75L130.273 70.0195C128.548 71.1914 126.742 72.2331 124.854 73.1445C123.193 73.9258 121.338 74.6257 119.287 75.2441C117.236 75.8952 115.104 76.2207 112.891 76.2207C111.068 76.2207 109.359 75.9115 107.764 75.293C106.201 74.707 104.818 73.8607 103.613 72.7539C102.441 71.6146 101.514 70.2474 100.83 68.6523C100.146 67.0573 99.8047 65.2669 99.8047 63.2812C99.8047 61.7839 99.9186 60.4004 100.146 59.1309C100.407 57.8613 100.895 56.6895 101.611 55.6152C102.36 54.5085 103.418 53.4668 104.785 52.4902C106.152 51.4811 107.959 50.5046 110.205 49.5605C112.484 48.6165 115.267 47.6725 118.555 46.7285C121.842 45.7845 125.781 44.8079 130.371 43.7988V42.5781C130.371 42.0898 130.387 41.6504 130.42 41.2598C130.42 40.804 130.436 40.3483 130.469 39.8926C130.501 38.9486 130.404 37.9395 130.176 36.8652C129.948 35.7585 129.492 34.7493 128.809 33.8379C128.125 32.8939 127.165 32.1289 125.928 31.543C124.691 30.9245 123.079 30.6152 121.094 30.6152C120.41 30.6152 119.792 30.6315 119.238 30.6641C118.717 30.6966 118.278 30.7454 117.92 30.8105C117.497 30.8757 117.122 30.9408 116.797 31.0059V40.4785H106.494C105.648 40.5436 104.899 40.4622 104.248 40.2344C103.695 40.0391 103.174 39.6973 102.686 39.209C102.23 38.7207 102.002 37.9557 102.002 36.9141C102.002 35.0586 102.653 33.3984 103.955 31.9336C105.29 30.4688 107.015 29.2318 109.131 28.2227C111.279 27.181 113.672 26.3835 116.309 25.8301C118.978 25.2767 121.631 25 124.268 25C127.132 25 129.753 25.2116 132.129 25.6348C134.505 26.0579 136.54 26.888 138.232 28.125C139.958 29.3294 141.276 31.0384 142.188 33.252C143.132 35.4655 143.604 38.3789 143.604 41.9922V67.6758C143.604 68.2943 143.815 68.8314 144.238 69.2871C144.661 69.7103 145.182 69.9544 145.801 70.0195L150.195 70.3125V75H131.592ZM130.273 49.2188C127.051 49.8698 124.382 50.5371 122.266 51.2207C120.182 51.9043 118.522 52.6855 117.285 53.5645C116.048 54.4434 115.186 55.4525 114.697 56.5918C114.209 57.6986 113.965 59.0007 113.965 60.498C113.965 61.5397 114.128 62.5163 114.453 63.4277C114.811 64.3066 115.299 65.0879 115.918 65.7715C116.569 66.4225 117.334 66.9434 118.213 67.334C119.092 67.7246 120.052 67.9199 121.094 67.9199C122.168 67.9199 123.242 67.806 124.316 67.5781C125.423 67.3503 126.416 67.1061 127.295 66.8457C128.337 66.5202 129.329 66.1458 130.273 65.7227V49.2188ZM186.23 75V70.3125L189.941 70.0195C190.56 69.9544 191.081 69.7103 191.504 69.2871C191.927 68.8314 192.139 68.2943 192.139 67.6758V44.1895C192.139 42.9199 191.992 41.6829 191.699 40.4785C191.406 39.2741 190.934 38.2161 190.283 37.3047C189.632 36.3607 188.786 35.612 187.744 35.0586C186.702 34.4727 185.433 34.1797 183.936 34.1797C182.568 34.1797 181.299 34.2611 180.127 34.4238C178.955 34.554 177.946 34.7005 177.1 34.8633C176.09 35.0586 175.179 35.2702 174.365 35.498V67.6758C174.365 68.2943 174.593 68.8314 175.049 69.2871C175.505 69.7103 176.042 69.9544 176.66 70.0195L179.639 70.3125V75H155.176V70.3125L158.74 70.0195C159.359 69.9544 159.88 69.7103 160.303 69.2871C160.726 68.8314 160.938 68.2943 160.938 67.6758V34.1797H154.053V30.0781L169.141 25H174.365V31.1035C176.09 29.9642 177.93 28.9551 179.883 28.0762C181.543 27.3275 183.415 26.6276 185.498 25.9766C187.581 25.3255 189.697 25 191.846 25C194.71 25 197.038 25.5046 198.828 26.5137C200.618 27.4902 202.002 28.7923 202.979 30.4199C203.955 32.0475 204.606 33.903 204.932 35.9863C205.29 38.0697 205.469 40.2018 205.469 42.3828V67.6758C205.469 68.2943 205.697 68.8314 206.152 69.2871C206.608 69.7103 207.145 69.9544 207.764 70.0195L210.84 70.3125V75H186.23ZM251.562 72.8027C250 73.4538 248.34 74.0234 246.582 74.5117C245.085 74.9674 243.376 75.3581 241.455 75.6836C239.567 76.0417 237.598 76.2207 235.547 76.2207C233.333 76.2207 231.445 75.9766 229.883 75.4883C228.353 75 227.1 74.2513 226.123 73.2422C225.179 72.2005 224.495 70.9147 224.072 69.3848C223.649 67.8548 223.438 66.0319 223.438 63.916V32.6172H216.846V28.6133L224.561 24.0234L229.932 13.3789H236.865V26.2207H250.732V32.6172H236.865V59.8145C236.865 63.0046 237.565 65.2507 238.965 66.5527C240.365 67.8548 242.399 68.5059 245.068 68.5059C245.85 68.5059 246.631 68.4733 247.412 68.4082C248.193 68.3431 248.893 68.2617 249.512 68.1641C250.228 68.0664 250.911 67.9525 251.562 67.8223V72.8027ZM287.451 42.3828C287.451 40.7878 287.305 39.2904 287.012 37.8906C286.719 36.4909 286.23 35.2865 285.547 34.2773C284.896 33.2357 284.049 32.4219 283.008 31.8359C281.966 31.2174 280.713 30.9082 279.248 30.9082C277.393 30.9082 275.83 31.3314 274.561 32.1777C273.324 32.9915 272.314 34.0658 271.533 35.4004C270.785 36.7025 270.247 38.1673 269.922 39.7949C269.596 41.4225 269.434 43.0176 269.434 44.5801H287.451V42.3828ZM301.758 70.3125C300.033 71.4518 298.096 72.4447 295.947 73.291C294.092 74.0397 291.878 74.707 289.307 75.293C286.735 75.9115 283.854 76.2207 280.664 76.2207C276.4 76.2207 272.673 75.5697 269.482 74.2676C266.325 72.9655 263.672 71.1914 261.523 68.9453C259.408 66.6667 257.812 64.0137 256.738 60.9863C255.697 57.959 255.176 54.7038 255.176 51.2207C255.176 47.4447 255.762 43.9616 256.934 40.7715C258.138 37.5488 259.831 34.7819 262.012 32.4707C264.225 30.127 266.878 28.304 269.971 27.002C273.096 25.6673 276.562 25 280.371 25C284.277 25 287.581 25.651 290.283 26.9531C293.018 28.2227 295.231 29.9316 296.924 32.0801C298.617 34.196 299.837 36.6211 300.586 39.3555C301.367 42.0898 301.758 44.9056 301.758 47.8027V50.1953H268.945C268.945 52.9297 269.287 55.3874 269.971 57.5684C270.654 59.7493 271.647 61.6048 272.949 63.1348C274.284 64.6647 275.911 65.8529 277.832 66.6992C279.753 67.513 281.934 67.9199 284.375 67.9199C286.914 67.9199 289.225 67.6432 291.309 67.0898C293.424 66.5039 295.264 65.8529 296.826 65.1367C298.617 64.2904 300.26 63.3464 301.758 62.3047V70.3125ZM343.506 32.8125C342.725 32.487 341.911 32.194 341.064 31.9336C340.348 31.7057 339.567 31.4941 338.721 31.2988C337.907 31.1035 337.126 31.0059 336.377 31.0059C334.066 31.0059 332.048 31.4779 330.322 32.4219C328.597 33.3659 327.165 34.668 326.025 36.3281C324.919 37.9883 324.089 39.9414 323.535 42.1875C322.982 44.4336 322.705 46.8424 322.705 49.4141C322.705 52.0508 322.965 54.4434 323.486 56.5918C324.04 58.7402 324.854 60.5957 325.928 62.1582C327.002 63.6882 328.353 64.8763 329.98 65.7227C331.608 66.569 333.512 66.9922 335.693 66.9922C336.605 66.9922 337.516 66.9108 338.428 66.748C339.372 66.5527 340.218 66.3249 340.967 66.0645C341.846 65.7715 342.692 65.446 343.506 65.0879V32.8125ZM343.506 75V69.1895C343.115 69.3848 342.415 69.873 341.406 70.6543C340.397 71.403 339.176 72.2005 337.744 73.0469C336.312 73.8607 334.733 74.5931 333.008 75.2441C331.283 75.8952 329.508 76.2207 327.686 76.2207C324.626 76.2207 321.875 75.6022 319.434 74.3652C317.025 73.1283 314.974 71.4193 313.281 69.2383C311.621 67.0573 310.335 64.4694 309.424 61.4746C308.545 58.4798 308.105 55.2246 308.105 51.709C308.105 47.4121 308.757 43.6035 310.059 40.2832C311.361 36.9629 313.167 34.1797 315.479 31.9336C317.79 29.6549 320.54 27.9297 323.73 26.7578C326.921 25.5859 330.404 25 334.18 25C335.124 25 336.133 25.0651 337.207 25.1953C338.314 25.3255 339.339 25.472 340.283 25.6348C341.357 25.7975 342.432 25.9928 343.506 26.2207V10.1074H336.084V6.00586L351.66 0.976562H356.787V67.6758C356.787 68.2943 356.999 68.8314 357.422 69.2871C357.845 69.7103 358.366 69.9544 358.984 70.0195L363.184 70.3125V75H343.506ZM417.822 26.2207L416.016 15.0879C415.918 14.3066 415.446 13.916 414.6 13.916H403.418V67.1875C403.418 67.8385 403.63 68.3594 404.053 68.75C404.508 69.1081 405.029 69.3197 405.615 69.3848L411.523 69.9219V75H381.006V69.9219L386.816 69.3848C387.435 69.3197 387.972 69.1081 388.428 68.75C388.883 68.3594 389.111 67.8385 389.111 67.1875V13.916H377.93C377.018 13.916 376.514 14.3066 376.416 15.0879L374.609 26.2207H367.432V7.91016H425.098V26.2207H417.822ZM467.139 50.7812C467.139 49.3815 467.074 47.9167 466.943 46.3867C466.813 44.8242 466.585 43.2943 466.26 41.7969C465.967 40.2995 465.544 38.8835 464.99 37.5488C464.437 36.2142 463.737 35.0423 462.891 34.0332C462.077 33.0241 461.1 32.2266 459.961 31.6406C458.822 31.0221 457.487 30.7129 455.957 30.7129C453.711 30.7129 451.872 31.3314 450.439 32.5684C449.007 33.8053 447.884 35.4004 447.07 37.3535C446.289 39.2741 445.736 41.39 445.41 43.7012C445.117 46.0124 444.971 48.2422 444.971 50.3906C444.971 51.8229 445.02 53.3203 445.117 54.8828C445.247 56.4453 445.459 57.9753 445.752 59.4727C446.077 60.9701 446.501 62.3861 447.021 63.7207C447.542 65.0553 448.21 66.2435 449.023 67.2852C449.87 68.2943 450.863 69.1081 452.002 69.7266C453.141 70.3125 454.492 70.6055 456.055 70.6055C458.333 70.6055 460.189 70.0033 461.621 68.7988C463.053 67.5618 464.176 65.9831 464.99 64.0625C465.804 62.1419 466.357 60.0098 466.65 57.666C466.976 55.3223 467.139 53.0273 467.139 50.7812ZM482.08 50.8789C482.08 54.6224 481.478 58.0566 480.273 61.1816C479.102 64.2741 477.376 66.9434 475.098 69.1895C472.819 71.403 470.036 73.1283 466.748 74.3652C463.493 75.6022 459.798 76.2207 455.664 76.2207C451.855 76.2207 448.372 75.6348 445.215 74.4629C442.09 73.291 439.388 71.6146 437.109 69.4336C434.863 67.2526 433.105 64.5996 431.836 61.4746C430.599 58.3171 429.98 54.7526 429.98 50.7812C429.98 46.6797 430.632 43.0339 431.934 39.8438C433.236 36.6536 435.042 33.9681 437.354 31.7871C439.697 29.5736 442.48 27.8971 445.703 26.7578C448.926 25.5859 452.474 25 456.348 25C460.482 25 464.144 25.6348 467.334 26.9043C470.524 28.1738 473.21 29.9642 475.391 32.2754C477.572 34.554 479.232 37.2721 480.371 40.4297C481.51 43.5872 482.08 47.0703 482.08 50.8789ZM537.744 41.7969C537.744 37.9557 537.451 34.6029 536.865 31.7383C536.279 28.8411 535.465 26.3672 534.424 24.3164C533.415 22.2331 532.21 20.5078 530.811 19.1406C529.411 17.7734 527.913 16.6992 526.318 15.918C524.723 15.1042 523.063 14.5345 521.338 14.209C519.613 13.8835 517.887 13.7207 516.162 13.7207H509.863V69.0918L518.164 68.8965C519.596 68.8639 521.077 68.6686 522.607 68.3105C524.137 67.9525 525.618 67.3665 527.051 66.5527C528.516 65.7389 529.883 64.6647 531.152 63.3301C532.454 61.9629 533.594 60.2865 534.57 58.3008C535.547 56.2826 536.312 53.9225 536.865 51.2207C537.451 48.4863 537.744 45.3451 537.744 41.7969ZM553.857 40.7227C553.857 46.4518 553.027 51.4648 551.367 55.7617C549.74 60.026 547.396 63.5905 544.336 66.4551C541.309 69.3197 537.646 71.4681 533.35 72.9004C529.053 74.3001 524.251 75 518.945 75H487.744V69.9219L493.262 69.3848C493.848 69.3197 494.368 69.1081 494.824 68.75C495.312 68.3594 495.557 67.8385 495.557 67.1875V15.7227C495.557 15.0716 495.312 14.5508 494.824 14.1602C494.368 13.7695 493.848 13.5417 493.262 13.4766L487.744 12.9883V7.91016H518.359C524.056 7.91016 529.102 8.70768 533.496 10.3027C537.923 11.8978 541.634 14.1439 544.629 17.041C547.656 19.9056 549.951 23.3561 551.514 27.3926C553.076 31.3965 553.857 35.8398 553.857 40.7227ZM597.998 50.7812C597.998 49.3815 597.933 47.9167 597.803 46.3867C597.673 44.8242 597.445 43.2943 597.119 41.7969C596.826 40.2995 596.403 38.8835 595.85 37.5488C595.296 36.2142 594.596 35.0423 593.75 34.0332C592.936 33.0241 591.96 32.2266 590.82 31.6406C589.681 31.0221 588.346 30.7129 586.816 30.7129C584.57 30.7129 582.731 31.3314 581.299 32.5684C579.867 33.8053 578.743 35.4004 577.93 37.3535C577.148 39.2741 576.595 41.39 576.27 43.7012C575.977 46.0124 575.83 48.2422 575.83 50.3906C575.83 51.8229 575.879 53.3203 575.977 54.8828C576.107 56.4453 576.318 57.9753 576.611 59.4727C576.937 60.9701 577.36 62.3861 577.881 63.7207C578.402 65.0553 579.069 66.2435 579.883 67.2852C580.729 68.2943 581.722 69.1081 582.861 69.7266C584.001 70.3125 585.352 70.6055 586.914 70.6055C589.193 70.6055 591.048 70.0033 592.48 68.7988C593.913 67.5618 595.036 65.9831 595.85 64.0625C596.663 62.1419 597.217 60.0098 597.51 57.666C597.835 55.3223 597.998 53.0273 597.998 50.7812ZM612.939 50.8789C612.939 54.6224 612.337 58.0566 611.133 61.1816C609.961 64.2741 608.236 66.9434 605.957 69.1895C603.678 71.403 600.895 73.1283 597.607 74.3652C594.352 75.6022 590.658 76.2207 586.523 76.2207C582.715 76.2207 579.232 75.6348 576.074 74.4629C572.949 73.291 570.247 71.6146 567.969 69.4336C565.723 67.2526 563.965 64.5996 562.695 61.4746C561.458 58.3171 560.84 54.7526 560.84 50.7812C560.84 46.6797 561.491 43.0339 562.793 39.8438C564.095 36.6536 565.902 33.9681 568.213 31.7871C570.557 29.5736 573.34 27.8971 576.562 26.7578C579.785 25.5859 583.333 25 587.207 25C591.341 25 595.003 25.6348 598.193 26.9043C601.383 28.1738 604.069 29.9642 606.25 32.2754C608.431 34.554 610.091 37.2721 611.23 40.4297C612.37 43.5872 612.939 47.0703 612.939 50.8789Z" fill="current"/>
</g>
<defs>
<clipPath id="clip0_54_3">
<rect width="613" height="77" fill="white"/>
</clipPath>
</defs>
</svg>
